<svg width="32" height="33" viewBox="0 0 32 33" fill="none" xmlns="http://www.w3.org/2000/svg">
<path d="M7.29231 13.0196L3.29231 9.01958C3.19933 8.92671 3.12557 8.81642 3.07525 8.69502C3.02493 8.57362 2.99902 8.44349 2.99902 8.31208C2.99902 8.18066 3.02493 8.05054 3.07525 7.92914C3.12557 7.80774 3.19933 7.69745 3.29231 7.60458L7.29231 3.60458C7.47995 3.41694 7.73445 3.31152 7.99981 3.31152C8.26517 3.31152 8.51967 3.41694 8.70731 3.60458C8.89495 3.79222 9.00037 4.04672 9.00037 4.31208C9.00037 4.57744 8.89495 4.83194 8.70731 5.01958L5.41356 8.31208L8.70731 11.6046C8.89495 11.7922 9.00037 12.0467 9.00037 12.3121C9.00037 12.5774 8.89495 12.8319 8.70731 13.0196C8.51967 13.2072 8.26517 13.3126 7.99981 13.3126C7.73445 13.3126 7.47995 13.2072 7.29231 13.0196ZM12.2923 13.0196C12.3852 13.1126 12.4955 13.1863 12.6169 13.2366C12.7383 13.287 12.8684 13.3129 12.9998 13.3129C13.1312 13.3129 13.2614 13.287 13.3828 13.2366C13.5041 13.1863 13.6144 13.1126 13.7073 13.0196L17.7073 9.01958C17.8003 8.92671 17.874 8.81642 17.9244 8.69502C17.9747 8.57362 18.0006 8.44349 18.0006 8.31208C18.0006 8.18066 17.9747 8.05054 17.9244 7.92914C17.874 7.80774 17.8003 7.69745 17.7073 7.60458L13.7073 3.60458C13.5197 3.41694 13.2652 3.31152 12.9998 3.31152C12.7344 3.31152 12.4799 3.41694 12.2923 3.60458C12.1047 3.79222 11.9993 4.04672 11.9993 4.31208C11.9993 4.57744 12.1047 4.83194 12.2923 5.01958L15.5861 8.31208L12.2923 11.6046C12.1993 11.6975 12.1256 11.8077 12.0753 11.9291C12.0249 12.0505 11.999 12.1807 11.999 12.3121C11.999 12.4435 12.0249 12.5736 12.0753 12.695C12.1256 12.8164 12.1993 12.9267 12.2923 13.0196ZM24.9998 5.31208H21.9998C21.7346 5.31208 21.4802 5.41744 21.2927 5.60497C21.1052 5.79251 20.9998 6.04686 20.9998 6.31208C20.9998 6.5773 21.1052 6.83165 21.2927 7.01919C21.4802 7.20672 21.7346 7.31208 21.9998 7.31208H24.9998V25.3121H6.99981V17.3121C6.99981 17.0469 6.89445 16.7925 6.70692 16.605C6.51938 16.4174 6.26503 16.3121 5.99981 16.3121C5.73459 16.3121 5.48024 16.4174 5.2927 16.605C5.10517 16.7925 4.99981 17.0469 4.99981 17.3121V25.3121C4.99981 25.8425 5.21052 26.3512 5.5856 26.7263C5.96067 27.1014 6.46938 27.3121 6.99981 27.3121H24.9998C25.5302 27.3121 26.0389 27.1014 26.414 26.7263C26.7891 26.3512 26.9998 25.8425 26.9998 25.3121V7.31208C26.9998 6.78165 26.7891 6.27294 26.414 5.89787C26.0389 5.52279 25.5302 5.31208 24.9998 5.31208Z" fill="#161616"/>
</svg>
