<svg width="140" height="25" viewBox="0 0 140 25" fill="none" xmlns="http://www.w3.org/2000/svg">
<g clip-path="url(#clip0_402_5122)">
<path d="M32.6292 24.3126H0L0.728205 23.4197L16.2152 0L32.6292 24.3126ZM2.35816 23.1965H30.5232L16.2247 2.01275L7.75915 14.8158L16.266 4.40382L27.7811 21.7195H5.3318L16.2024 9.00798L22.4616 15.7398L16.174 6.28432L2.35816 23.1965ZM7.7597 20.6035H25.4542L16.2381 10.6876L7.7597 20.6035Z" fill="#8012FF"/>
<path d="M38.6055 18.4732V7.89551H48.3606V10.0254H40.7505V12.1118H46.8769V14.2568H40.7505V16.3432H48.3606V18.4732H38.6055Z" fill="#2C2C2D"/>
<path d="M49.5361 18.4732V7.89551H51.7832L55.4856 12.3177L59.173 7.89551H61.4368V18.4732H59.3064V11.0516L55.4862 15.6245L51.6516 11.0706V18.4732H49.5361Z" fill="#2C2C2D"/>
<path d="M63.1699 18.4734V7.91022H71.6176C71.9905 7.90722 72.3572 8.00621 72.6779 8.19648C72.9979 8.38451 73.2655 8.64987 73.4563 8.96821C73.6507 9.28647 73.7524 9.65271 73.7498 10.0256V12.8157C73.753 13.1864 73.6513 13.5505 73.4563 13.8659C73.264 14.181 72.9965 14.4434 72.6779 14.6298C72.3573 14.8205 71.9906 14.9197 71.6176 14.9166L65.2876 14.9328V18.4734H63.1699ZM65.3735 12.7878H71.515C71.5364 12.7871 71.5569 12.7795 71.5736 12.766C71.5823 12.7604 71.5896 12.7527 71.5947 12.7437C71.5998 12.7347 71.6027 12.7245 71.6031 12.7141V10.1138C71.5998 10.0916 71.5894 10.0711 71.5736 10.0552C71.5577 10.0393 71.5372 10.029 71.515 10.0256H65.3735C65.3513 10.029 65.3308 10.0393 65.3149 10.0552C65.299 10.0711 65.2887 10.0916 65.2853 10.1138V12.7141C65.2857 12.7245 65.2886 12.7347 65.2938 12.7437C65.2989 12.7527 65.3062 12.7604 65.3149 12.766C65.3316 12.7795 65.3521 12.7871 65.3735 12.7878ZM71.4854 18.4734L68.3566 14.742H71.1333L73.7191 17.811V18.4723L71.4854 18.4734Z" fill="#2C2C2D"/>
<path d="M77.4058 18.4735C77.0329 18.4765 76.6663 18.3775 76.3456 18.1873C76.0267 18.0002 75.7612 17.7345 75.5744 17.4155C75.3845 17.0957 75.2855 16.7301 75.2882 16.3581V10.0113C75.2852 9.63838 75.3841 9.27176 75.5744 8.95105C75.7613 8.63225 76.0268 8.36673 76.3456 8.17988C76.6663 7.98961 77.0329 7.89062 77.4058 7.89362H83.7381C84.1101 7.89096 84.4757 7.98994 84.7955 8.17988C85.1164 8.36754 85.385 8.63269 85.5768 8.95105C85.7715 9.27019 85.8732 9.63742 85.8703 10.0113V10.9219H83.7253V10.1139C83.7246 10.1027 83.7217 10.0918 83.7167 10.0817C83.7117 10.0716 83.7048 10.0627 83.6963 10.0554C83.6812 10.0381 83.66 10.0275 83.6371 10.0258H77.499C77.4773 10.0281 77.4573 10.0387 77.4432 10.0554C77.4345 10.0626 77.4274 10.0715 77.4223 10.0816C77.4172 10.0917 77.4143 10.1027 77.4136 10.1139V16.2554C77.4143 16.2667 77.4172 16.2777 77.4223 16.2878C77.4274 16.2979 77.4345 16.3068 77.4432 16.314C77.4573 16.3307 77.4773 16.3413 77.499 16.3436H83.6371C83.66 16.3419 83.6812 16.3313 83.6963 16.314C83.7048 16.3067 83.7117 16.2977 83.7167 16.2877C83.7217 16.2776 83.7246 16.2666 83.7253 16.2554V14.5217H81.3895V12.3912H85.8703V16.3581C85.8728 16.731 85.7712 17.0973 85.5768 17.4155C85.385 17.734 85.1164 17.9994 84.7955 18.1873C84.4757 18.3772 84.1101 18.4762 83.7381 18.4735H77.4058Z" fill="#2C2C2D"/>
<path d="M91.451 18.4732V9.48193H86.9551V7.89551H97.5327V9.48193H93.0374V18.4732H91.451Z" fill="#2C2C2D"/>
<path d="M98.6348 18.4734V7.91023H107.288C107.629 7.90721 107.965 7.99875 108.258 8.17473C108.545 8.34501 108.785 8.58511 108.955 8.8728C109.126 9.15953 109.215 9.48764 109.212 9.82142V12.7889C109.216 13.1272 109.127 13.4601 108.955 13.7515C108.786 14.038 108.546 14.2758 108.258 14.4417C107.963 14.6132 107.628 14.7021 107.288 14.699L100.221 14.7135V18.4745L98.6348 18.4734ZM100.588 13.0964H107.258C107.304 13.0967 107.35 13.0878 107.393 13.0701C107.436 13.0525 107.475 13.0266 107.508 12.9938C107.541 12.9609 107.567 12.922 107.584 12.879C107.602 12.8361 107.611 12.7901 107.61 12.7437V9.86438C107.611 9.76849 107.574 9.6761 107.508 9.60714C107.477 9.57164 107.438 9.54328 107.395 9.52402C107.352 9.50476 107.305 9.49504 107.258 9.49554H100.588C100.492 9.49794 100.4 9.5374 100.331 9.60574C100.263 9.67409 100.224 9.76609 100.221 9.86271V12.742C100.221 12.7893 100.23 12.8361 100.25 12.8792C100.269 12.9224 100.297 12.9608 100.333 12.992C100.401 13.0591 100.493 13.0966 100.588 13.0964H100.588ZM107.302 18.4734L103.997 14.5215H106.068L109.153 18.1799V18.4734H107.302Z" fill="#2C2C2D"/>
<path d="M110.709 18.4732V7.89551H112.295V18.4732H110.709Z" fill="#2C2C2D"/>
<path d="M113.942 7.89562H122.17C122.508 7.89194 122.841 7.9807 123.132 8.1523C123.417 8.32027 123.655 8.558 123.823 8.84312C123.994 9.13429 124.083 9.46699 124.08 9.80513V11.9652C124.08 12.0933 124.067 12.2211 124.043 12.3469C124.02 12.4703 123.978 12.5893 123.918 12.6995C124.094 12.94 124.243 13.1985 124.364 13.4707C124.465 13.6994 124.518 13.9463 124.519 14.1961V16.561C124.523 16.8993 124.434 17.2322 124.262 17.5235C124.093 17.8102 123.852 18.0481 123.564 18.2138C123.27 18.3856 122.935 18.4745 122.594 18.471H113.942V7.89562ZM115.895 12.2883H122.125C122.172 12.2887 122.219 12.279 122.262 12.2597C122.305 12.2405 122.343 12.2122 122.374 12.1767C122.441 12.1078 122.478 12.0157 122.477 11.92V9.84921C122.478 9.75352 122.441 9.66138 122.374 9.59253C122.343 9.55705 122.305 9.52872 122.262 9.50946C122.219 9.4902 122.172 9.48047 122.125 9.48093H115.899C115.802 9.48333 115.71 9.52279 115.642 9.59113C115.573 9.65947 115.534 9.75148 115.532 9.8481V11.92C115.534 12.0166 115.573 12.1086 115.642 12.177C115.71 12.2453 115.802 12.2848 115.899 12.2872L115.895 12.2883ZM115.895 16.8869H122.565C122.613 16.8872 122.659 16.8775 122.702 16.8582C122.746 16.839 122.784 16.8107 122.815 16.7752C122.882 16.7063 122.919 16.6139 122.918 16.518V14.2413C122.919 14.1454 122.882 14.0531 122.815 13.9841C122.784 13.9487 122.746 13.9204 122.702 13.9011C122.659 13.8819 122.613 13.8721 122.565 13.8725H115.899C115.802 13.8749 115.71 13.9144 115.642 13.9829C115.573 14.0513 115.534 14.1435 115.532 14.2402V16.5174C115.534 16.6142 115.573 16.7063 115.642 16.7748C115.71 16.8432 115.802 16.8828 115.899 16.8852L115.895 16.8869Z" fill="#2C2C2D"/>
<path d="M126.151 18.4732V7.89551H135.848V9.48193H127.753V12.3908H134.261V13.9778H127.753V16.8867H135.848V18.4732H126.151Z" fill="#2C2C2D"/>
</g>
<defs>
<clipPath id="clip0_402_5122">
<rect width="140" height="24.3126" fill="white"/>
</clipPath>
</defs>
</svg>
