<svg width="32" height="33" viewBox="0 0 32 33" fill="none" xmlns="http://www.w3.org/2000/svg">
<path d="M30.7073 9.60458L26.7073 5.60458C26.5197 5.41694 26.2652 5.31152 25.9998 5.31152C25.7345 5.31152 25.48 5.41694 25.2923 5.60458C25.1047 5.79222 24.9993 6.04672 24.9993 6.31208C24.9993 6.57744 25.1047 6.83194 25.2923 7.01958L27.5861 9.31208H23.9998C22.7747 9.35648 21.5704 9.64236 20.4561 10.1533C18.7536 10.9396 16.6023 12.6171 16.0136 16.1533C15.3486 20.1458 12.3761 21.0558 10.8886 21.2608C10.6263 20.0502 9.92397 18.98 8.91765 18.2576C7.91133 17.5353 6.6727 17.2122 5.44175 17.351C4.21081 17.4897 3.07521 18.0805 2.25501 19.0088C1.4348 19.9371 0.988385 21.1368 1.00227 22.3755C1.01615 23.6142 1.48934 24.8036 2.33015 25.7133C3.17096 26.623 4.31951 27.1881 5.55325 27.2993C6.787 27.4105 8.01808 27.0597 9.00796 26.315C9.99784 25.5702 10.676 24.4846 10.9111 23.2683C11.8101 23.1659 12.6884 22.9277 13.5161 22.5621C15.2186 21.8121 17.3748 20.1371 17.9861 16.4758C18.8311 11.4083 23.7923 11.3121 23.9998 11.3121H27.5861L25.2923 13.6046C25.1047 13.7922 24.9993 14.0467 24.9993 14.3121C24.9993 14.5774 25.1047 14.8319 25.2923 15.0196C25.48 15.2072 25.7345 15.3126 25.9998 15.3126C26.2652 15.3126 26.5197 15.2072 26.7073 15.0196L30.7073 11.0196C30.8003 10.9267 30.8741 10.8164 30.9244 10.695C30.9747 10.5736 31.0006 10.4435 31.0006 10.3121C31.0006 10.1807 30.9747 10.0505 30.9244 9.92914C30.8741 9.80774 30.8003 9.69745 30.7073 9.60458ZM5.99985 25.3121C5.4065 25.3121 4.82648 25.1361 4.33313 24.8065C3.83979 24.4768 3.45527 24.0083 3.22821 23.4601C3.00114 22.912 2.94173 22.3088 3.05749 21.7268C3.17324 21.1449 3.45897 20.6103 3.87853 20.1908C4.29808 19.7712 4.83263 19.4855 5.41457 19.3697C5.99652 19.254 6.59972 19.3134 7.1479 19.5404C7.69607 19.7675 8.16461 20.152 8.49425 20.6454C8.8239 21.1387 8.99985 21.7187 8.99985 22.3121C8.99985 23.1077 8.68378 23.8708 8.12117 24.4334C7.55856 24.996 6.7955 25.3121 5.99985 25.3121Z" fill="#161616"/>
</svg>
