<svg width="32" height="33" viewBox="0 0 32 33" fill="none" xmlns="http://www.w3.org/2000/svg">
<path d="M22.0002 29.3128C22.0002 29.578 21.8948 29.8323 21.7073 30.0199C21.5197 30.2074 21.2654 30.3128 21.0002 30.3128H11.0002C10.7349 30.3128 10.4806 30.2074 10.2931 30.0199C10.1055 29.8323 10.0002 29.578 10.0002 29.3128C10.0002 29.0475 10.1055 28.7932 10.2931 28.6057C10.4806 28.4181 10.7349 28.3128 11.0002 28.3128H21.0002C21.2654 28.3128 21.5197 28.4181 21.7073 28.6057C21.8948 28.7932 22.0002 29.0475 22.0002 29.3128ZM27.0002 13.3128C27.0045 14.9798 26.6279 16.6258 25.8991 18.1252C25.1704 19.6245 24.1087 20.9375 22.7952 21.964C22.5496 22.1523 22.3502 22.3942 22.2125 22.6713C22.0747 22.9484 22.0021 23.2533 22.0002 23.5628V24.3128C22.0002 24.8432 21.7894 25.3519 21.4144 25.727C21.0393 26.102 20.5306 26.3128 20.0002 26.3128H12.0002C11.4697 26.3128 10.961 26.102 10.586 25.727C10.2109 25.3519 10.0002 24.8432 10.0002 24.3128V23.5628C9.99996 23.257 9.92965 22.9554 9.79465 22.681C9.65965 22.4067 9.46355 22.167 9.22141 21.9803C7.91133 20.96 6.85049 19.655 6.11916 18.1642C5.38783 16.6734 5.00518 15.0358 5.00016 13.3753C4.96766 7.41651 9.78266 2.45651 15.7352 2.31276C17.2018 2.27742 18.6608 2.53583 20.0261 3.07279C21.3914 3.60974 22.6355 4.41439 23.6852 5.43938C24.7349 6.46436 25.5689 7.68897 26.1382 9.04112C26.7075 10.3933 27.0006 11.8457 27.0002 13.3128ZM25.0002 13.3128C25.0005 12.1123 24.7607 10.924 24.2949 9.81762C23.8291 8.71127 23.1466 7.70929 22.2877 6.87065C21.4288 6.03202 20.4108 5.37368 19.2936 4.9344C18.1765 4.49511 16.9827 4.28375 15.7827 4.31276C10.9077 4.42776 6.97391 8.48651 7.00016 13.3615C7.00464 14.7198 7.31803 16.0592 7.9166 17.2784C8.51518 18.4977 9.38327 19.5648 10.4552 20.399C10.937 20.7736 11.3267 21.2534 11.5945 21.8018C11.8623 22.3501 12.001 22.9525 12.0002 23.5628V24.3128H15.0002V18.7265L11.2927 15.0203C11.105 14.8326 10.9996 14.5781 10.9996 14.3128C10.9996 14.0474 11.105 13.7929 11.2927 13.6053C11.4803 13.4176 11.7348 13.3122 12.0002 13.3122C12.2655 13.3122 12.52 13.4176 12.7077 13.6053L16.0002 16.899L19.2927 13.6053C19.3856 13.5124 19.4959 13.4387 19.6173 13.3884C19.7387 13.3381 19.8688 13.3122 20.0002 13.3122C20.1316 13.3122 20.2617 13.3381 20.3831 13.3884C20.5045 13.4387 20.6148 13.5124 20.7077 13.6053C20.8006 13.6982 20.8743 13.8085 20.9246 13.9299C20.9748 14.0513 21.0007 14.1814 21.0007 14.3128C21.0007 14.4442 20.9748 14.5743 20.9246 14.6957C20.8743 14.8171 20.8006 14.9274 20.7077 15.0203L17.0002 18.7265V24.3128H20.0002V23.5628C20.0013 22.9507 20.1423 22.347 20.4125 21.7978C20.6826 21.2486 21.0748 20.7684 21.5589 20.394C22.634 19.5538 23.503 18.479 24.0994 17.2518C24.6958 16.0245 25.0039 14.6773 25.0002 13.3128Z" fill="#161616"/>
</svg>
