<svg width="32" height="33" viewBox="0 0 32 33" fill="none" xmlns="http://www.w3.org/2000/svg">
<path d="M30 12.8975C30.0008 12.6347 29.9494 12.3744 29.8488 12.1317C29.7481 11.889 29.6002 11.6688 29.4137 11.4837L20.8287 2.89747C20.643 2.71171 20.4225 2.56435 20.1798 2.46381C19.9371 2.36327 19.677 2.31152 19.4143 2.31152C19.1516 2.31152 18.8915 2.36327 18.6489 2.46381C18.4062 2.56435 18.1857 2.71171 18 2.89747L14.4462 6.45122L7.19621 9.17247C6.86671 9.29535 6.57527 9.50263 6.35107 9.77356C6.12687 10.0445 5.97778 10.3696 5.91871 10.7162L3.01371 28.1475C2.98974 28.2908 2.99727 28.4376 3.0358 28.5776C3.07432 28.7177 3.1429 28.8477 3.23677 28.9586C3.33064 29.0695 3.44754 29.1586 3.57934 29.2197C3.71114 29.2808 3.85468 29.3125 3.99996 29.3125C4.05523 29.3122 4.1104 29.3076 4.16496 29.2987L21.595 26.3937C21.9412 26.3359 22.2661 26.188 22.5371 25.9649C22.8081 25.7417 23.0156 25.4512 23.1387 25.1225L25.86 17.8725L29.4137 14.3125C29.6003 14.1272 29.7483 13.9068 29.8489 13.6638C29.9495 13.4209 30.0009 13.1604 30 12.8975ZM21.2662 24.4212L6.91496 26.8125L12.8362 20.8912C13.5758 21.2909 14.4345 21.4111 15.2553 21.2297C16.0762 21.0484 16.8044 20.5776 17.3067 19.9035C17.809 19.2295 18.052 18.3971 17.9911 17.5587C17.9302 16.7202 17.5696 15.9317 16.9752 15.3373C16.3807 14.7428 15.5922 14.3822 14.7538 14.3213C13.9153 14.2604 13.0829 14.5034 12.4089 15.0057C11.7348 15.508 11.2641 16.2362 11.0827 17.0571C10.9014 17.8779 11.0215 18.7367 11.4212 19.4762L5.49996 25.4L7.89121 11.045L14.75 8.47372L23.8375 17.5625L21.2662 24.4212ZM13 17.8125C13 17.5158 13.0879 17.2258 13.2528 16.9791C13.4176 16.7324 13.6518 16.5402 13.9259 16.4267C14.2 16.3131 14.5016 16.2834 14.7926 16.3413C15.0836 16.3992 15.3508 16.542 15.5606 16.7518C15.7704 16.9616 15.9133 17.2289 15.9711 17.5198C16.029 17.8108 15.9993 18.1124 15.8858 18.3865C15.7722 18.6606 15.58 18.8949 15.3333 19.0597C15.0866 19.2245 14.7966 19.3125 14.5 19.3125C14.1021 19.3125 13.7206 19.1544 13.4393 18.8731C13.158 18.5918 13 18.2103 13 17.8125ZM25 15.8975L16.4137 7.31247L19.4137 4.31247L28 12.8975L25 15.8975Z" fill="#161616"/>
</svg>
