<svg width="32" height="33" viewBox="0 0 32 33" fill="none" xmlns="http://www.w3.org/2000/svg">
<path d="M24 14.8125C24 15.1092 23.912 15.3992 23.7472 15.6459C23.5824 15.8925 23.3481 16.0848 23.074 16.1983C22.7999 16.3119 22.4983 16.3416 22.2074 16.2837C21.9164 16.2258 21.6491 16.0829 21.4393 15.8732C21.2296 15.6634 21.0867 15.3961 21.0288 15.1051C20.9709 14.8142 21.0007 14.5126 21.1142 14.2385C21.2277 13.9644 21.42 13.7301 21.6666 13.5653C21.9133 13.4005 22.2033 13.3125 22.5 13.3125C22.8978 13.3125 23.2794 13.4705 23.5607 13.7518C23.842 14.0331 24 14.4147 24 14.8125ZM19 8.3125H14C13.7348 8.3125 13.4804 8.41786 13.2929 8.60539C13.1054 8.79293 13 9.04728 13 9.3125C13 9.57772 13.1054 9.83207 13.2929 10.0196C13.4804 10.2071 13.7348 10.3125 14 10.3125H19C19.2652 10.3125 19.5196 10.2071 19.7071 10.0196C19.8946 9.83207 20 9.57772 20 9.3125C20 9.04728 19.8946 8.79293 19.7071 8.60539C19.5196 8.41786 19.2652 8.3125 19 8.3125ZM31 14.3125V18.3125C31 19.1081 30.6839 19.8712 30.1213 20.4338C29.5587 20.9964 28.7956 21.3125 28 21.3125H27.705L25.6787 26.985C25.54 27.3735 25.2845 27.7097 24.9473 27.9473C24.6101 28.185 24.2076 28.3125 23.795 28.3125H22.205C21.7924 28.3125 21.3899 28.185 21.0527 27.9473C20.7155 27.7097 20.46 27.3735 20.3213 26.985L20.0812 26.3125H12.9187L12.6788 26.985C12.54 27.3735 12.2845 27.7097 11.9473 27.9473C11.6101 28.185 11.2076 28.3125 10.795 28.3125H9.205C8.79243 28.3125 8.38995 28.185 8.05271 27.9473C7.71547 27.7097 7.45998 27.3735 7.32125 26.985L5.75 22.59C4.25523 20.8982 3.31926 18.7862 3.07 16.5425C2.74728 16.712 2.47702 16.9665 2.28844 17.2784C2.09985 17.5904 2.00011 17.948 2 18.3125C2 18.5777 1.89464 18.8321 1.70711 19.0196C1.51957 19.2071 1.26522 19.3125 1 19.3125C0.734784 19.3125 0.48043 19.2071 0.292893 19.0196C0.105357 18.8321 0 18.5777 0 18.3125C0.00152797 17.4207 0.301028 16.555 0.850918 15.8529C1.40081 15.1508 2.16955 14.6526 3.035 14.4375C3.2584 11.6817 4.51003 9.11061 6.54135 7.2349C8.57268 5.35919 11.2351 4.31601 14 4.3125H27C27.2652 4.3125 27.5196 4.41786 27.7071 4.60539C27.8946 4.79293 28 5.04728 28 5.3125C28 5.57772 27.8946 5.83207 27.7071 6.01961C27.5196 6.20714 27.2652 6.3125 27 6.3125H24.3263C25.9858 7.47687 27.291 9.07754 28.0975 10.9375C28.1512 11.0625 28.2038 11.1875 28.2537 11.3125C29.0046 11.3762 29.704 11.7202 30.2129 12.2761C30.7217 12.8319 31.0027 13.5589 31 14.3125ZM29 14.3125C29 14.0473 28.8946 13.7929 28.7071 13.6054C28.5196 13.4179 28.2652 13.3125 28 13.3125H27.5425C27.3295 13.3127 27.122 13.2449 26.9503 13.119C26.7785 12.9931 26.6514 12.8157 26.5875 12.6125C26.0146 10.7842 24.8723 9.18678 23.3275 8.05343C21.7826 6.92009 19.916 6.31011 18 6.3125H14C12.2534 6.31241 10.5445 6.82054 9.08171 7.77493C7.61891 8.72932 6.46543 10.0887 5.76191 11.6874C5.05839 13.286 4.83524 15.0548 5.11967 16.7781C5.4041 18.5014 6.18382 20.1047 7.36375 21.3925C7.45398 21.4906 7.52368 21.6058 7.56875 21.7313L9.205 26.3125H10.795L11.2725 24.9762C11.3418 24.7821 11.4695 24.6141 11.638 24.4953C11.8065 24.3764 12.0076 24.3126 12.2137 24.3125H20.7862C20.9924 24.3126 21.1935 24.3764 21.362 24.4953C21.5305 24.6141 21.6582 24.7821 21.7275 24.9762L22.205 26.3125H23.795L26.0588 19.9762C26.1281 19.7821 26.2557 19.6141 26.4242 19.4953C26.5927 19.3764 26.7938 19.3126 27 19.3125H28C28.2652 19.3125 28.5196 19.2071 28.7071 19.0196C28.8946 18.8321 29 18.5777 29 18.3125V14.3125Z" fill="#161616"/>
</svg>
