<svg width="32" height="33" viewBox="0 0 32 33" fill="none" xmlns="http://www.w3.org/2000/svg">
<path d="M13 26.3127C13 26.578 12.8946 26.8323 12.7071 27.0199C12.5196 27.2074 12.2652 27.3127 12 27.3127H6C5.73478 27.3127 5.48043 27.2074 5.29289 27.0199C5.10536 26.8323 5 26.578 5 26.3127C5 26.0475 5.10536 25.7932 5.29289 25.6056C5.48043 25.4181 5.73478 25.3127 6 25.3127H12C12.2652 25.3127 12.5196 25.4181 12.7071 25.6056C12.8946 25.7932 13 26.0475 13 26.3127ZM9 22.3127C9 22.0475 8.89464 21.7932 8.70711 21.6056C8.51957 21.4181 8.26522 21.3127 8 21.3127H4C3.73478 21.3127 3.48043 21.4181 3.29289 21.6056C3.10536 21.7932 3 22.0475 3 22.3127C3 22.578 3.10536 22.8323 3.29289 23.0199C3.48043 23.2074 3.73478 23.3127 4 23.3127H8C8.26522 23.3127 8.51957 23.2074 8.70711 23.0199C8.89464 22.8323 9 22.578 9 22.3127ZM32 24.3127V25.3127C32 25.8432 31.7893 26.3519 31.4142 26.727C31.0391 27.102 30.5304 27.3127 30 27.3127H18.4137C17.8865 27.3138 17.3803 27.1057 17.0063 26.734L3.5975 13.7402L3.58625 13.729C3.21146 13.354 3.00093 12.8455 3.00093 12.3152C3.00093 11.785 3.21146 11.2765 3.58625 10.9015L11.5863 2.8865L11.605 2.869C11.9816 2.5062 12.4859 2.30633 13.0088 2.31265C13.5317 2.31896 14.031 2.53096 14.3988 2.90275L15.425 3.93775C15.7761 4.28932 15.9837 4.75897 16.0075 5.25525C16.1487 8.11525 18.1325 10.044 21.1712 10.289C21.6691 10.3318 22.1329 10.5594 22.4714 10.927C22.8098 11.2946 22.9984 11.7756 23 12.2752V15.3127C23 16.3736 23.4214 17.391 24.1716 18.1412C24.9217 18.8913 25.9391 19.3127 27 19.3127C28.3261 19.3127 29.5979 19.8395 30.5355 20.7772C31.4732 21.7149 32 22.9867 32 24.3127ZM30 24.3127C30 23.5171 29.6839 22.754 29.1213 22.1914C28.5587 21.6288 27.7956 21.3127 27 21.3127C25.8217 21.3141 24.6693 20.9662 23.6887 20.3127H20C19.7348 20.3127 19.4804 20.2074 19.2929 20.0199C19.1054 19.8323 19 19.578 19 19.3127C19 19.0475 19.1054 18.7932 19.2929 18.6056C19.4804 18.4181 19.7348 18.3127 20 18.3127H21.8075C21.4486 17.6948 21.2039 17.0174 21.085 16.3127H19C18.7348 16.3127 18.4804 16.2074 18.2929 16.0199C18.1054 15.8323 18 15.578 18 15.3127C18 15.0475 18.1054 14.7932 18.2929 14.6056C18.4804 14.4181 18.7348 14.3127 19 14.3127H21V12.2752C19.0713 12.1177 17.39 11.4002 16.14 10.2002C14.8412 8.95025 14.105 7.274 14.015 5.3465L12.9838 4.31275L5 12.3127L18.4025 25.3002L18.4137 25.3102H30V24.3127Z" fill="#161616"/>
</svg>
