<svg width="32" height="33" viewBox="0 0 32 33" fill="none" xmlns="http://www.w3.org/2000/svg">
<path d="M29.9996 7.3125V15.3125C29.9996 15.5777 29.8942 15.8321 29.7067 16.0196C29.5192 16.2071 29.2648 16.3125 28.9996 16.3125C28.7344 16.3125 28.48 16.2071 28.2925 16.0196C28.1049 15.8321 27.9996 15.5777 27.9996 15.3125V9.72625L17.7071 20.02C17.6142 20.113 17.5039 20.1867 17.3825 20.2371C17.2611 20.2874 17.131 20.3133 16.9996 20.3133C16.8682 20.3133 16.738 20.2874 16.6166 20.2371C16.4952 20.1867 16.385 20.113 16.2921 20.02L11.9996 15.7262L3.70708 24.02C3.51944 24.2076 3.26494 24.3131 2.99958 24.3131C2.73422 24.3131 2.47972 24.2076 2.29208 24.02C2.10444 23.8324 1.99902 23.5779 1.99902 23.3125C1.99902 23.0471 2.10444 22.7926 2.29208 22.605L11.2921 13.605C11.385 13.512 11.4952 13.4383 11.6166 13.3879C11.738 13.3376 11.8682 13.3117 11.9996 13.3117C12.131 13.3117 12.2611 13.3376 12.3825 13.3879C12.5039 13.4383 12.6142 13.512 12.7071 13.605L16.9996 17.8988L26.5858 8.3125H20.9996C20.7344 8.3125 20.48 8.20714 20.2925 8.01961C20.1049 7.83207 19.9996 7.57772 19.9996 7.3125C19.9996 7.04728 20.1049 6.79293 20.2925 6.60539C20.48 6.41786 20.7344 6.3125 20.9996 6.3125H28.9996C29.2648 6.3125 29.5192 6.41786 29.7067 6.60539C29.8942 6.79293 29.9996 7.04728 29.9996 7.3125Z" fill="#161616"/>
</svg>
